<svg id="svg" version="1.1" xmlns="http://www.w3.org/2000/svg" xmlns:xlink="http://www.w3.org/1999/xlink" width="400" height="284.33734939759034" viewBox="0, 0, 400,284.33734939759034"><g id="svgg"><path id="path0" d="M197.160 32.357 C 196.772 32.430,196.045 32.829,195.545 33.243 C 195.044 33.658,194.363 34.189,194.029 34.424 C 192.394 35.577,192.719 37.653,194.733 38.916 C 195.361 39.311,196.547 40.205,197.368 40.904 L 198.862 42.174 199.322 41.073 C 199.575 40.467,200.279 39.378,200.887 38.652 C 202.401 36.843,202.442 35.305,201.016 33.793 C 199.510 32.196,199.013 32.011,197.160 32.357 M198.441 42.941 C 198.343 43.249,197.842 43.923,197.326 44.439 C 196.810 44.955,196.172 45.797,195.906 46.311 C 195.298 47.488,193.558 48.325,189.268 49.503 C 187.511 49.985,185.177 50.823,184.081 51.364 C 182.985 51.906,180.182 53.041,177.853 53.887 C 175.524 54.732,173.377 55.568,173.082 55.745 C 172.787 55.921,170.754 56.699,168.563 57.473 C 164.046 59.070,162.756 60.052,162.167 62.344 C 161.523 64.850,160.366 67.173,159.336 68.027 L 158.321 68.870 159.033 69.419 C 161.489 71.319,166.256 71.976,178.556 72.111 C 190.291 72.239,189.194 72.007,191.065 74.755 C 191.676 75.652,192.398 76.633,192.669 76.933 C 192.940 77.233,193.363 78.005,193.608 78.648 C 194.600 81.244,197.635 82.014,199.995 80.269 C 205.636 76.099,207.050 72.776,205.441 67.477 C 205.108 66.383,204.836 65.316,204.835 65.105 C 204.831 64.191,204.192 62.541,203.644 62.030 C 203.081 61.506,203.074 61.436,203.513 60.765 C 204.466 59.311,207.745 59.593,209.738 61.299 C 210.359 61.830,211.570 62.621,212.428 63.055 C 213.286 63.489,214.294 64.208,214.668 64.652 C 215.685 65.861,216.727 66.281,218.777 66.310 C 220.261 66.331,220.467 66.384,219.819 66.578 C 219.376 66.711,218.855 66.759,218.661 66.685 C 218.304 66.548,217.639 67.683,217.639 68.429 C 217.639 68.653,217.159 69.091,216.572 69.401 C 213.993 70.767,212.413 73.519,213.869 74.110 C 217.020 75.387,220.576 75.965,228.710 76.519 C 235.295 76.968,236.724 78.229,235.018 82.086 L 234.443 83.385 235.024 84.858 C 235.343 85.668,236.139 86.929,236.792 87.662 C 238.885 90.007,238.905 90.040,239.940 93.049 C 240.956 96.001,242.278 98.363,243.043 98.596 C 243.388 98.701,243.873 98.965,244.122 99.182 C 244.511 99.523,244.632 99.508,244.993 99.078 C 246.847 96.867,246.919 95.718,245.538 90.327 C 245.217 89.075,244.954 87.460,244.952 86.737 C 244.951 86.014,244.746 84.286,244.497 82.896 C 244.247 81.507,244.073 79.474,244.109 78.378 C 244.291 72.802,243.868 71.970,239.832 69.971 C 237.999 69.063,237.867 68.937,238.058 68.279 C 238.373 67.193,238.223 62.380,237.844 61.467 C 237.456 60.529,234.392 59.091,231.818 58.640 C 229.204 58.181,223.978 56.670,221.976 55.795 C 220.920 55.333,219.161 54.684,218.065 54.352 C 212.974 52.809,211.783 52.327,208.422 50.444 C 207.874 50.137,207.050 49.903,203.956 49.175 C 201.614 48.625,199.667 46.340,199.227 43.626 C 199.040 42.474,198.687 42.166,198.441 42.941 M196.541 58.619 C 197.246 59.049,197.439 59.324,197.287 59.684 C 197.174 59.952,197.019 60.463,196.941 60.821 C 196.864 61.179,196.272 61.838,195.626 62.285 C 194.981 62.732,193.772 63.925,192.940 64.936 C 192.107 65.946,190.911 67.063,190.280 67.418 L 189.133 68.062 187.958 67.237 C 185.581 65.566,185.740 64.477,189.040 59.823 C 190.085 58.349,194.845 57.585,196.541 58.619 M224.845 66.992 C 225.172 67.441,225.644 67.710,226.107 67.710 C 227.310 67.710,230.163 68.606,229.968 68.923 C 229.646 69.443,222.686 68.916,222.250 68.338 C 222.048 68.071,221.632 67.563,221.326 67.210 C 220.610 66.385,220.618 66.350,221.550 66.194 C 223.057 65.943,224.299 66.244,224.845 66.992 M166.513 79.969 C 164.516 81.246,163.585 83.080,163.585 85.738 C 163.585 87.656,163.478 88.252,163.037 88.813 C 161.548 90.705,160.756 93.190,160.583 96.510 C 160.337 101.212,158.274 106.816,156.289 108.176 C 153.243 110.263,152.427 118.110,155.012 120.450 C 155.590 120.972,157.326 120.259,157.326 119.499 C 157.326 118.937,158.196 119.009,158.921 119.632 C 162.061 122.331,164.548 122.413,169.415 119.978 C 170.822 119.274,171.644 119.085,174.109 118.894 C 175.753 118.767,177.127 118.657,177.162 118.649 C 177.937 118.473,178.273 115.672,177.811 113.238 C 176.535 106.508,177.920 97.217,180.625 94.365 L 181.935 92.984 182.123 90.233 C 182.226 88.720,182.435 86.551,182.588 85.412 C 183.036 82.075,182.573 80.939,180.765 80.939 L 179.374 80.939 178.297 83.104 C 177.099 85.513,176.839 86.811,176.389 92.603 C 175.932 98.474,174.473 101.827,172.175 102.283 C 171.753 102.366,171.057 102.547,170.627 102.686 C 170.197 102.824,169.783 102.835,169.706 102.710 C 169.628 102.585,169.148 102.404,168.638 102.309 C 166.912 101.985,164.871 98.063,164.312 93.998 C 164.078 92.297,165.216 89.833,166.664 88.905 C 168.759 87.563,169.440 82.079,167.787 79.869 C 167.449 79.418,167.365 79.425,166.513 79.969 M215.295 82.859 C 214.152 83.742,214.116 86.174,215.109 95.164 C 215.604 99.653,215.710 100.246,216.080 100.616 C 216.279 100.815,216.659 101.718,216.924 102.623 C 217.189 103.527,217.584 104.859,217.801 105.582 C 218.483 107.855,219.013 111.803,219.204 116.022 C 219.460 121.702,220.069 123.551,221.348 122.537 C 222.758 121.419,223.151 120.315,223.510 116.461 C 223.703 114.384,224.187 111.368,224.585 109.757 C 225.874 104.547,225.403 102.873,222.405 101.999 C 218.050 100.729,217.668 99.091,218.920 87.055 C 219.134 84.996,218.491 83.318,217.328 82.897 C 216.061 82.439,215.845 82.435,215.295 82.859 M109.107 92.558 C 108.849 92.953,108.554 94.464,108.382 96.273 C 108.070 99.570,107.617 100.648,105.682 102.703 C 105.166 103.250,104.326 104.723,103.815 105.974 C 103.305 107.226,102.732 108.442,102.543 108.677 C 102.107 109.218,100.851 111.736,100.577 112.618 C 100.181 113.898,99.018 115.273,97.815 115.885 C 96.899 116.352,96.549 116.727,96.372 117.435 C 96.204 118.107,95.862 118.501,95.153 118.839 C 94.611 119.097,94.168 119.413,94.168 119.541 C 94.168 119.668,93.966 119.772,93.719 119.772 C 92.562 119.772,91.711 121.246,91.512 123.592 C 91.388 125.059,91.121 126.184,90.746 126.820 C 89.888 128.274,87.989 130.444,87.209 130.861 C 85.389 131.836,84.129 135.601,85.277 136.632 C 85.980 137.262,87.691 137.519,88.809 137.163 C 94.140 135.467,96.574 135.242,98.567 136.264 C 102.196 138.126,106.261 136.032,105.645 132.619 C 105.358 131.034,104.262 130.530,100.112 130.074 C 94.789 129.489,92.072 125.838,94.717 122.825 C 95.176 122.303,95.639 121.529,95.745 121.105 C 95.851 120.682,96.339 120.050,96.829 119.701 C 97.901 118.937,99.353 117.332,99.638 116.595 C 99.782 116.223,100.041 116.100,100.491 116.193 C 100.847 116.266,101.634 116.406,102.240 116.504 C 102.846 116.602,103.550 116.786,103.805 116.913 C 104.059 117.041,104.905 117.295,105.685 117.479 C 107.401 117.885,108.751 118.861,109.245 120.055 C 109.991 121.856,113.214 122.631,113.623 121.108 C 113.943 119.914,113.792 119.408,112.781 118.289 C 112.149 117.590,111.829 116.995,111.935 116.719 C 112.390 115.534,112.619 112.182,112.465 108.962 C 112.268 104.857,112.380 104.496,114.669 101.849 C 116.558 99.664,116.931 98.188,115.963 96.725 C 114.695 94.809,112.208 92.520,111.043 92.196 C 109.598 91.795,109.608 91.793,109.107 92.558 M191.075 96.728 C 189.576 98.565,187.790 102.327,185.740 107.966 C 185.284 109.218,184.787 110.498,184.634 110.811 C 184.113 111.878,183.205 116.306,182.933 119.109 C 182.307 125.546,182.676 127.646,184.610 128.637 C 185.116 128.896,185.755 129.312,186.031 129.561 C 186.647 130.119,187.114 130.129,188.115 129.606 C 189.873 128.690,195.404 128.242,201.422 128.529 C 212.374 129.051,212.831 127.948,209.420 109.246 C 208.303 103.126,207.951 101.484,207.679 101.138 C 207.556 100.982,207.303 100.341,207.117 99.714 C 206.544 97.781,206.455 97.735,202.276 97.214 C 195.826 96.412,191.487 96.223,191.075 96.728 M283.385 99.080 C 282.240 99.668,280.967 101.477,280.967 102.514 C 280.967 103.366,281.179 103.890,282.607 106.580 C 283.006 107.331,283.036 107.776,282.797 109.425 C 282.198 113.570,282.415 115.022,284.407 120.199 C 285.622 123.355,287.061 124.633,288.700 124.009 C 290.704 123.248,293.869 123.992,296.728 125.897 C 299.354 127.647,304.721 128.672,305.244 127.524 C 305.616 126.707,305.646 123.850,305.285 123.627 C 305.141 123.537,304.942 123.100,304.844 122.654 C 304.421 120.725,301.832 119.373,297.752 118.951 C 291.157 118.268,288.056 113.716,288.195 104.922 C 288.259 100.873,288.294 101.022,286.984 99.825 C 285.689 98.640,284.655 98.426,283.385 99.080 M145.429 108.447 C 145.060 109.912,144.998 111.229,145.265 111.926 C 145.877 113.520,146.638 110.526,146.128 108.530 L 145.766 107.112 145.429 108.447 M251.022 109.065 C 250.072 109.865,249.587 111.193,249.323 113.719 C 249.021 116.612,249.688 117.764,251.672 117.777 C 252.511 117.782,252.855 118.289,253.443 120.382 C 254.076 122.635,255.817 125.057,257.112 125.485 C 257.621 125.653,258.037 125.909,258.037 126.053 C 258.037 126.766,259.224 127.454,260.455 127.454 C 261.936 127.454,262.260 126.693,261.055 126.048 C 260.682 125.848,260.207 125.346,260.002 124.933 C 259.796 124.520,259.390 123.909,259.098 123.575 C 258.807 123.242,258.381 122.217,258.152 121.299 C 257.456 118.521,256.967 117.635,255.961 117.337 C 255.457 117.187,254.909 116.757,254.713 116.358 C 253.759 114.413,253.417 113.486,252.883 111.391 C 252.079 108.243,252.047 108.203,251.022 109.065 M242.133 110.526 C 242.041 111.667,241.327 112.165,239.208 112.565 C 236.056 113.161,234.990 114.602,234.994 118.263 C 235.003 125.908,241.039 125.738,241.964 118.065 C 242.068 117.205,242.278 116.053,242.431 115.505 C 242.609 114.869,242.614 113.688,242.445 112.233 C 242.299 110.982,242.159 110.213,242.133 110.526 M119.855 114.791 C 119.044 115.337,118.150 116.126,117.867 116.543 C 117.585 116.961,116.874 117.765,116.287 118.330 C 114.490 120.062,114.694 121.564,116.856 122.515 C 119.120 123.511,121.251 124.967,122.128 126.117 C 123.184 127.501,124.742 127.868,129.587 127.875 C 134.055 127.881,133.872 127.942,136.510 125.570 C 141.700 120.902,142.581 119.621,143.093 115.996 C 143.266 114.771,143.227 114.625,142.695 114.513 C 141.010 114.159,140.989 114.169,140.089 115.781 C 139.559 116.731,138.726 117.692,137.987 118.208 C 137.313 118.677,135.980 119.809,135.024 120.724 C 131.990 123.627,128.748 124.400,124.766 123.170 C 122.497 122.469,122.270 122.070,123.448 120.842 C 127.349 116.776,127.175 117.073,126.387 115.851 C 124.815 113.411,122.469 113.031,119.855 114.791 M245.933 118.764 C 244.836 119.860,244.944 121.800,246.178 123.166 L 247.121 124.210 248.020 122.907 C 249.041 121.425,249.386 118.811,248.624 118.328 C 247.871 117.852,246.647 118.050,245.933 118.764 M271.876 120.617 C 270.256 121.136,269.931 121.678,270.529 122.864 C 271.999 125.785,271.139 128.243,268.472 128.743 C 267.561 128.914,267.425 129.043,267.425 129.738 C 267.425 131.387,267.522 131.437,270.692 131.437 L 273.613 131.437 275.676 129.587 C 276.810 128.570,277.843 127.738,277.972 127.738 C 278.601 127.738,279.603 126.354,279.794 125.222 C 280.261 122.449,275.251 119.535,271.876 120.617 M170.128 127.720 C 167.543 127.840,166.055 128.035,165.576 128.316 C 165.034 128.635,163.714 128.743,160.028 128.773 C 157.368 128.795,154.968 128.827,154.694 128.845 C 154.352 128.866,154.196 129.114,154.196 129.636 C 154.196 130.054,153.984 130.630,153.725 130.916 C 153.277 131.413,153.310 131.437,154.437 131.437 C 155.456 131.437,155.763 131.279,156.648 130.299 L 157.676 129.161 160.144 129.161 C 162.840 129.161,164.171 129.620,165.439 130.989 C 165.813 131.392,166.425 131.721,166.800 131.721 C 167.176 131.721,167.854 131.843,168.307 131.992 C 169.652 132.435,174.713 132.814,176.203 132.585 C 177.772 132.342,177.969 132.126,178.234 130.353 C 178.614 127.824,177.272 127.389,170.128 127.720 M244.666 128.358 C 243.962 128.508,241.828 128.654,239.923 128.682 C 236.720 128.730,236.408 128.784,235.751 129.402 C 234.805 130.290,231.109 130.860,228.307 130.549 C 227.212 130.427,226.038 130.321,225.698 130.313 C 225.357 130.305,224.699 129.979,224.234 129.587 C 223.556 129.017,223.078 128.876,221.818 128.876 L 220.248 128.876 219.517 130.184 C 218.221 132.502,219.387 133.559,222.547 132.930 C 228.021 131.839,229.714 131.792,233.273 132.629 C 235.080 133.053,237.582 133.605,238.834 133.855 C 240.085 134.105,241.558 134.423,242.105 134.563 C 242.653 134.702,244.014 134.903,245.130 135.009 L 247.160 135.202 247.501 134.169 C 247.946 132.819,247.958 130.374,247.526 129.064 C 247.148 127.920,246.950 127.871,244.666 128.358 M141.963 133.031 C 139.418 133.460,138.703 133.850,138.013 135.187 C 137.378 136.420,137.724 136.735,140.102 137.089 C 145.703 137.922,147.793 137.366,147.982 134.993 C 148.078 133.782,148.037 133.696,147.228 133.444 C 146.192 133.120,142.946 132.866,141.963 133.031 M186.011 133.771 C 185.099 134.477,184.889 136.143,185.625 136.835 C 186.236 137.409,186.594 137.445,192.353 137.519 C 197.725 137.588,198.618 137.667,200.000 138.194 C 207.102 140.903,211.095 140.663,211.095 137.529 C 211.095 136.406,210.998 136.256,209.623 135.269 C 207.139 133.484,206.823 133.417,202.383 133.720 C 199.972 133.884,196.774 133.889,194.168 133.733 C 187.829 133.353,186.544 133.359,186.011 133.771 M251.778 139.811 L 251.778 141.058 254.267 141.241 C 255.637 141.341,257.360 141.556,258.097 141.719 C 259.337 141.992,261.451 141.669,261.451 141.206 C 261.451 139.641,258.414 138.096,257.332 139.112 C 256.709 139.698,254.418 139.567,252.493 138.835 C 251.797 138.570,251.778 138.596,251.778 139.811 M304.360 138.856 C 303.306 139.445,300.155 139.663,299.094 139.220 C 297.371 138.500,294.153 140.277,295.161 141.392 C 295.887 142.193,297.740 142.681,298.591 142.293 C 299.015 142.100,300.766 141.963,302.816 141.963 C 306.208 141.963,308.108 141.637,308.108 141.056 C 308.108 140.264,305.050 138.469,304.360 138.856 M113.222 141.367 C 110.091 141.808,108.574 144.515,109.386 148.213 L 109.562 149.011 110.613 148.490 C 114.409 146.609,117.371 146.176,125.923 146.254 C 132.587 146.315,132.360 146.363,133.134 144.760 L 133.690 143.611 132.919 142.636 C 131.924 141.377,131.387 141.263,128.225 141.635 C 124.697 142.051,122.720 142.027,119.367 141.529 C 116.423 141.092,115.372 141.064,113.222 141.367 M273.175 143.135 C 265.934 143.410,265.544 143.504,264.673 145.189 C 264.244 146.019,264.253 146.075,264.901 146.569 C 265.272 146.852,265.749 147.229,265.961 147.407 C 266.245 147.645,266.728 147.648,267.810 147.417 C 271.551 146.618,277.708 146.519,279.734 147.225 C 283.456 148.521,286.811 146.791,285.498 144.253 C 285.142 143.564,284.850 143.413,283.577 143.256 C 280.659 142.897,279.734 142.886,273.175 143.135 M83.073 143.853 C 83.073 144.025,82.564 144.659,81.942 145.263 C 78.690 148.419,78.784 153.795,82.147 157.039 L 83.211 158.066 84.405 157.198 C 86.479 155.690,87.119 152.635,86.183 148.717 C 85.888 147.482,83.073 143.079,83.073 143.853 M175.450 146.098 C 174.857 146.315,174.005 146.754,173.557 147.073 C 172.830 147.591,172.291 147.655,168.519 147.676 C 166.196 147.689,162.568 147.853,160.455 148.040 L 156.615 148.381 159.317 148.587 C 163.203 148.884,168.161 149.646,168.996 150.076 C 169.391 150.279,170.287 150.509,170.988 150.587 C 171.689 150.665,172.889 150.874,173.656 151.051 C 176.012 151.595,177.394 151.217,178.402 149.753 C 178.873 149.067,179.383 148.506,179.534 148.506 C 179.836 148.506,178.480 146.213,177.980 145.879 C 177.524 145.575,176.676 145.648,175.450 146.098 M150.200 147.132 C 149.524 149.645,150.198 149.968,153.818 148.865 L 155.288 148.417 153.706 147.596 C 152.836 147.145,151.858 146.589,151.532 146.361 C 150.669 145.756,150.553 145.823,150.200 147.132 M244.239 149.921 C 242.448 151.725,240.121 152.064,234.139 151.392 C 227.797 150.680,217.541 150.250,216.934 150.671 C 215.578 151.610,215.623 153.014,217.053 154.341 C 219.621 156.723,220.906 156.915,225.605 155.614 C 231.370 154.018,235.790 153.580,240.541 154.135 C 244.031 154.542,246.429 154.384,247.111 153.702 C 247.499 153.314,247.495 150.413,247.105 150.001 C 246.871 149.754,244.471 149.687,244.239 149.921 M103.841 151.404 C 103.450 151.569,101.794 151.753,100.161 151.814 C 96.021 151.966,94.890 152.932,94.023 157.053 C 93.792 158.154,93.416 159.415,93.188 159.856 C 92.503 161.180,92.131 165.129,92.495 167.219 C 92.878 169.416,93.157 169.255,93.887 166.416 C 94.662 163.401,95.798 162.327,98.820 161.751 C 100.048 161.517,101.649 160.986,102.376 160.571 C 103.103 160.156,104.415 159.444,105.290 158.988 C 107.694 157.736,109.251 153.221,107.860 151.539 C 107.409 150.993,105.003 150.912,103.841 151.404 M135.602 152.234 C 134.227 154.197,135.542 156.965,138.503 158.336 C 139.809 158.941,140.825 159.853,140.825 160.419 C 140.825 161.082,141.279 160.458,141.656 159.277 C 142.006 158.179,142.345 157.866,144.763 156.399 C 148.503 154.130,147.960 152.098,143.587 151.993 C 141.990 151.955,139.645 151.843,138.376 151.745 C 136.181 151.576,136.046 151.600,135.602 152.234 M255.903 154.771 C 255.434 154.877,254.205 155.368,253.173 155.861 C 252.141 156.354,251.152 156.757,250.975 156.757 C 249.622 156.757,249.757 159.856,251.177 161.411 C 253.841 164.327,261.453 159.969,258.859 157.014 C 258.529 156.638,257.921 155.936,257.508 155.454 C 256.871 154.711,256.627 154.607,255.903 154.771 M311.815 155.832 C 310.285 161.232,310.989 165.344,313.333 164.697 C 314.923 164.258,315.591 160.471,314.847 156.117 L 314.617 154.765 313.367 154.765 C 312.167 154.765,312.106 154.807,311.815 155.832 M287.100 157.716 C 286.519 158.038,286.486 158.138,286.844 158.496 C 287.069 158.722,287.416 159.398,287.615 159.999 C 288.040 161.288,288.467 160.925,288.474 159.269 C 288.481 157.387,288.222 157.093,287.100 157.716 M154.883 157.818 C 153.337 158.915,152.432 163.881,152.910 168.644 L 153.102 170.555 154.319 170.459 L 155.537 170.362 155.895 168.325 C 156.093 167.204,156.352 166.159,156.473 166.003 C 156.593 165.846,156.781 165.296,156.892 164.779 C 157.002 164.263,157.407 163.067,157.791 162.121 C 158.515 160.340,158.421 158.968,157.525 158.227 C 157.046 157.832,155.254 157.554,154.883 157.818 M176.323 159.441 C 175.292 160.859,174.944 164.353,175.637 166.323 C 175.851 166.929,176.264 168.706,176.556 170.270 L 177.087 173.115 177.495 167.942 C 178.060 160.787,177.628 157.649,176.323 159.441 M192.319 162.149 C 189.668 162.698,188.291 163.851,187.758 165.969 C 187.596 166.613,187.210 167.671,186.900 168.318 C 185.082 172.114,185.129 175.507,187.052 179.225 C 187.562 180.211,187.685 182.583,187.268 183.379 C 186.329 185.170,186.045 188.211,185.763 199.511 C 185.606 205.804,185.357 211.547,185.209 212.273 C 184.875 213.918,185.224 216.161,186.109 218.065 C 186.763 219.470,186.771 219.613,186.771 229.630 L 186.771 239.771 185.547 239.939 C 184.324 240.107,181.692 239.101,180.616 238.054 C 178.558 236.051,176.926 236.260,174.399 238.850 L 172.553 240.742 171.269 240.562 C 170.563 240.464,168.065 240.271,165.718 240.134 C 163.371 239.998,161.131 239.811,160.740 239.718 C 157.771 239.018,146.125 238.224,145.519 238.680 C 144.061 239.779,139.221 239.536,137.553 238.281 C 135.219 236.524,132.638 236.018,130.392 236.876 C 126.965 238.185,125.199 236.202,124.328 230.069 C 123.392 223.477,123.393 223.496,123.911 220.852 C 124.534 217.671,125.112 216.544,127.384 214.083 C 129.677 211.599,130.013 210.828,130.019 208.046 C 130.021 206.828,130.225 205.064,130.471 204.125 C 131.227 201.247,131.249 200.383,130.629 198.065 C 130.306 196.860,129.893 194.926,129.710 193.767 C 129.307 191.213,128.500 190.315,125.178 188.728 C 115.465 184.087,105.076 189.670,107.380 198.293 C 107.610 199.154,108.043 200.766,108.341 201.877 C 109.017 204.386,108.818 206.208,107.746 207.336 C 105.822 209.361,104.521 213.062,103.526 219.346 C 103.364 220.363,102.484 223.499,101.569 226.316 C 100.654 229.132,99.749 232.077,99.559 232.859 C 98.919 235.488,98.109 236.546,96.441 236.931 C 94.090 237.474,66.520 237.404,65.454 236.852 C 63.413 235.797,62.717 234.195,62.474 229.990 C 62.146 224.322,61.446 224.100,60.746 229.442 C 59.977 235.309,59.295 235.918,53.246 236.144 C 47.850 236.346,46.942 236.713,46.942 238.694 C 46.942 241.034,49.773 241.924,54.626 241.109 C 58.030 240.537,66.592 240.623,68.225 241.245 C 68.937 241.517,70.497 241.553,74.626 241.397 C 86.070 240.962,94.238 241.472,95.776 242.717 C 96.634 243.412,97.822 243.480,98.911 242.896 C 99.737 242.454,100.718 242.281,103.019 242.171 C 107.401 241.964,107.950 242.114,108.457 243.656 L 108.870 244.908 107.707 245.351 C 107.067 245.595,105.391 245.990,103.983 246.229 C 100.332 246.850,99.858 246.961,99.858 247.199 C 99.858 247.442,105.714 248.273,110.100 248.651 C 111.743 248.793,114.879 249.193,117.070 249.540 C 122.626 250.421,138.010 250.406,152.347 249.505 C 155.007 249.338,159.360 249.068,162.020 248.906 C 164.680 248.744,168.457 248.442,170.413 248.236 C 173.968 247.861,205.446 247.831,212.945 248.195 C 214.666 248.279,219.851 248.486,224.467 248.656 C 229.083 248.825,234.972 249.053,237.553 249.162 C 243.313 249.405,254.923 249.128,256.472 248.710 C 262.631 247.052,264.639 246.871,278.378 246.728 C 296.552 246.540,302.071 246.597,305.690 247.011 C 310.675 247.581,320.504 247.483,323.613 246.833 C 326.639 246.200,330.772 246.120,334.566 246.620 C 338.354 247.120,349.267 246.955,350.125 246.386 C 351.112 245.732,351.444 244.853,351.234 243.454 C 350.914 241.318,349.680 240.955,342.178 240.790 C 335.806 240.651,333.899 240.401,332.321 239.499 L 331.356 238.947 330.614 239.654 C 328.606 241.569,324.654 242.167,318.065 241.554 C 316.110 241.372,312.845 241.108,310.811 240.968 C 304.713 240.548,304.433 240.451,303.066 238.299 C 301.682 236.121,301.643 231.440,302.983 228.318 C 304.317 225.210,304.811 224.264,305.464 223.567 L 306.174 222.811 305.478 222.354 C 304.718 221.856,304.452 221.127,303.556 217.082 C 303.228 215.603,302.851 214.259,302.719 214.095 C 302.586 213.932,302.208 212.902,301.878 211.807 C 300.869 208.459,300.511 207.849,299.200 207.239 L 298.009 206.686 297.688 202.418 C 297.263 196.769,296.008 190.326,295.334 190.328 C 295.240 190.328,294.722 190.976,294.182 191.769 C 293.642 192.561,293.102 193.270,292.982 193.344 C 292.698 193.519,290.185 191.157,290.185 190.716 C 290.185 190.373,288.798 188.904,285.140 185.374 L 283.104 183.409 279.931 183.127 C 272.202 182.441,265.877 186.343,265.216 192.204 C 265.045 193.724,265.608 196.353,266.260 197.077 C 266.510 197.355,267.062 198.095,267.487 198.722 C 267.913 199.349,268.713 200.342,269.266 200.928 C 269.818 201.513,270.276 202.281,270.283 202.632 C 270.305 203.767,270.780 207.174,271.363 210.384 C 271.960 213.672,272.388 216.919,272.694 220.484 C 272.795 221.657,273.059 223.425,273.281 224.413 C 273.503 225.401,273.694 227.449,273.705 228.965 C 273.716 230.481,273.849 232.425,274.000 233.286 C 275.223 240.268,275.004 240.538,267.724 241.031 C 257.403 241.730,254.045 241.247,252.466 238.838 L 251.969 238.079 251.296 238.939 C 249.778 240.879,247.512 241.866,244.592 241.859 C 237.141 241.842,227.452 241.457,225.178 241.088 C 223.770 240.860,220.960 240.543,218.935 240.385 C 214.709 240.055,215.074 240.204,214.878 238.743 C 214.728 237.625,214.744 237.602,216.031 237.033 C 217.480 236.392,217.514 236.368,219.415 234.691 C 220.326 233.888,220.845 233.166,221.011 232.469 C 221.146 231.901,221.420 230.733,221.619 229.872 C 222.055 227.988,222.452 227.175,223.517 225.978 C 223.961 225.480,224.466 224.841,224.638 224.558 C 224.973 224.011,226.042 223.856,232.744 223.382 C 235.550 223.183,236.142 223.056,236.709 222.527 C 237.528 221.765,237.737 221.760,238.912 222.476 C 239.448 222.803,240.353 223.046,241.045 223.050 C 244.632 223.066,248.626 224.000,249.438 225.011 C 251.512 227.595,251.614 227.865,251.795 231.294 L 251.969 234.566 252.016 231.896 C 252.121 225.887,254.209 224.022,259.377 225.320 C 262.851 226.192,263.134 226.361,263.518 227.795 C 263.698 228.468,264.001 229.018,264.192 229.018 C 264.383 229.018,264.772 229.313,265.058 229.672 C 266.255 231.182,267.141 230.956,267.141 229.141 C 267.141 227.897,266.375 226.743,265.551 226.743 C 265.242 226.743,264.503 225.764,263.529 224.065 C 262.807 222.806,262.048 220.863,261.853 219.772 C 261.741 219.147,261.460 218.344,261.229 217.988 C 260.398 216.711,258.291 202.776,257.736 194.890 C 257.566 192.471,257.275 189.356,257.089 187.968 L 256.751 185.444 255.970 186.058 C 254.281 187.386,254.100 190.451,254.692 207.681 C 255.049 218.076,254.936 219.024,253.149 220.639 L 251.991 221.685 251.166 220.728 C 250.713 220.203,250.263 219.452,250.166 219.061 C 250.069 218.670,249.751 217.872,249.458 217.288 C 249.018 216.408,248.933 215.625,248.962 212.726 C 248.986 210.300,248.867 208.836,248.573 207.956 C 248.340 207.257,247.921 205.157,247.643 203.289 C 247.254 200.683,247.079 200.047,246.891 200.555 C 246.756 200.920,246.467 201.616,246.248 202.103 C 246.029 202.589,245.589 203.599,245.271 204.346 C 244.655 205.790,244.445 206.044,243.062 207.020 L 242.185 207.639 241.694 205.171 C 241.424 203.813,241.091 202.383,240.955 201.991 C 240.819 201.600,240.585 199.984,240.435 198.399 C 240.158 195.482,239.552 193.730,238.373 192.441 C 237.802 191.817,239.087 190.603,240.782 190.166 C 242.137 189.817,242.458 189.302,242.605 187.237 C 242.916 182.901,242.245 181.761,239.149 181.364 C 238.233 181.246,237.258 180.870,236.511 180.347 C 234.608 179.013,232.321 179.120,231.715 180.572 C 231.266 181.646,230.413 186.615,230.618 186.961 C 231.858 189.055,231.447 202.845,230.144 202.845 C 229.969 202.845,229.758 202.447,228.266 199.289 C 227.127 196.881,225.834 187.959,225.774 182.101 C 225.757 180.404,225.630 179.384,225.429 179.316 C 225.204 179.241,225.104 180.581,225.088 183.910 C 225.075 186.495,224.869 190.117,224.631 191.958 C 222.943 204.981,223.323 212.802,225.643 212.802 C 226.451 212.802,229.681 211.435,230.055 210.935 C 230.605 210.201,232.270 210.098,233.339 210.733 C 237.048 212.938,241.439 212.858,242.012 210.576 C 242.173 209.933,242.205 209.922,242.477 210.419 C 242.638 210.713,243.306 211.465,243.962 212.091 C 245.752 213.798,245.831 217.923,244.074 217.923 C 243.930 217.923,243.812 218.052,243.812 218.210 C 243.812 218.368,243.460 218.896,243.030 219.383 L 242.248 220.268 237.368 220.072 C 234.684 219.964,231.931 219.708,231.251 219.504 C 229.937 219.108,227.163 219.770,225.461 220.885 C 225.082 221.134,224.415 221.339,223.979 221.341 C 222.784 221.346,220.314 222.067,219.160 222.748 C 216.003 224.610,214.558 222.598,213.957 215.505 C 213.471 209.776,213.102 206.818,212.803 206.260 C 212.646 205.967,212.515 205.495,212.511 205.211 C 212.507 204.927,212.178 203.926,211.778 202.987 C 209.808 198.356,209.772 196.038,211.624 193.036 C 214.055 189.095,213.548 184.092,210.376 180.729 C 209.111 179.389,208.994 177.695,210.085 176.518 C 212.544 173.864,211.377 170.205,207.552 168.579 C 206.023 167.929,205.690 167.670,205.690 167.129 C 205.690 166.378,205.004 165.576,204.362 165.576 C 204.124 165.576,203.589 165.393,203.173 165.169 C 197.406 162.061,195.418 161.508,192.319 162.149 M208.345 162.381 C 206.857 162.858,206.543 163.310,206.543 164.974 C 206.543 166.173,213.049 166.719,214.057 165.604 C 214.542 165.069,214.263 163.216,213.598 162.551 C 212.983 161.937,210.030 161.841,208.345 162.381 M220.102 162.397 C 217.606 165.158,219.948 169.482,223.253 168.214 C 224.225 167.841,224.300 163.886,223.354 162.929 C 222.701 162.270,220.538 161.915,220.102 162.397 M242.017 164.258 C 241.777 164.884,241.808 169.412,242.067 171.550 L 242.256 173.115 242.608 170.697 C 243.161 166.894,242.745 162.361,242.017 164.258 M140.765 166.572 C 140.564 168.184,140.851 171.273,141.135 170.547 C 141.421 169.816,141.418 166.734,141.130 166.003 C 140.950 165.545,140.879 165.656,140.765 166.572 M112.680 167.024 C 110.991 167.355,110.831 167.577,111.363 168.852 C 111.777 169.843,111.851 169.893,112.307 169.487 C 112.580 169.246,113.408 168.766,114.148 168.421 C 115.318 167.877,115.456 167.724,115.205 167.254 C 114.893 166.671,114.609 166.645,112.680 167.024 M280.035 171.664 L 279.242 172.346 280.087 174.115 C 280.552 175.088,281.202 176.096,281.532 176.355 C 281.861 176.614,282.349 177.286,282.615 177.847 C 283.192 179.062,284.048 179.510,286.344 179.796 C 291.486 180.439,292.628 175.729,287.727 174.098 C 286.570 173.713,285.734 173.241,285.456 172.818 C 284.286 171.033,281.467 170.432,280.035 171.664 M94.933 172.987 C 94.381 173.632,93.757 175.784,93.308 178.592 C 93.001 180.513,92.724 181.026,92.334 180.395 C 92.090 179.999,90.095 179.739,88.953 179.953 C 87.995 180.133,87.921 180.227,87.655 181.608 C 87.207 183.934,86.771 188.097,86.769 190.075 C 86.762 195.196,85.836 198.787,83.897 201.212 C 83.336 201.913,82.939 202.844,82.744 203.915 C 82.580 204.813,82.270 206.444,82.055 207.539 C 80.900 213.422,80.887 213.540,81.353 214.255 C 82.326 215.749,83.118 216.160,85.420 216.364 C 87.177 216.520,87.631 216.655,87.657 217.028 C 87.675 217.286,87.707 217.679,87.728 217.903 C 87.867 219.368,91.517 220.488,92.948 219.503 C 93.522 219.108,94.339 208.852,94.717 197.297 C 94.965 189.712,95.577 186.623,97.295 184.297 C 97.856 183.536,98.573 178.140,98.293 176.787 C 98.231 176.489,98.103 175.645,98.009 174.913 C 97.856 173.723,97.747 173.561,96.995 173.396 C 96.532 173.294,95.982 173.040,95.773 172.831 C 95.456 172.513,95.317 172.539,94.933 172.987 M176.943 175.984 C 176.926 177.913,176.121 180.157,175.320 180.508 C 174.968 180.663,174.663 181.047,174.643 181.362 C 174.549 182.837,174.767 184.897,175.142 186.064 C 176.424 190.052,174.597 214.488,172.839 216.872 C 172.469 217.375,168.575 217.659,167.888 217.234 C 167.698 217.117,164.292 218.075,163.940 218.344 C 163.900 218.374,164.406 218.964,165.063 219.654 L 166.259 220.910 169.201 220.858 C 171.973 220.809,172.220 220.853,173.483 221.613 C 178.069 224.374,178.873 222.813,178.169 212.518 C 177.981 209.780,177.683 200.178,177.506 191.181 C 177.329 182.183,177.132 174.769,177.070 174.704 C 177.007 174.638,176.950 175.215,176.943 175.984 M164.336 177.256 C 162.042 177.921,161.410 180.090,161.187 188.051 C 161.098 191.259,160.776 196.112,160.472 198.836 C 159.883 204.112,159.899 204.534,160.808 207.384 C 162.552 212.850,166.335 214.099,167.285 209.521 C 167.891 206.602,167.545 196.670,166.790 195.303 C 164.714 191.548,165.030 189.823,168.562 185.633 C 170.522 183.307,170.866 182.417,170.420 180.825 C 169.690 178.215,166.825 176.535,164.336 177.256 M150.394 191.607 C 150.282 192.703,150.074 195.135,149.931 197.013 C 149.789 198.890,149.531 201.759,149.359 203.387 C 149.020 206.587,149.280 209.392,150.095 211.333 C 151.698 215.150,152.574 197.872,151.091 191.678 L 150.598 189.616 150.394 191.607 M137.553 196.934 C 136.048 197.441,135.876 197.606,135.369 199.029 C 134.849 200.488,134.828 205.042,135.298 214.225 C 135.437 216.932,135.371 218.349,135.023 220.159 C 133.873 226.142,135.045 228.958,137.567 226.274 C 139.947 223.743,140.948 219.834,139.844 217.386 C 139.464 216.544,139.388 215.865,139.518 214.474 C 140.025 209.038,140.014 207.800,139.427 204.267 C 139.102 202.312,138.835 199.783,138.835 198.649 C 138.834 197.514,138.738 196.600,138.620 196.616 C 138.503 196.633,138.023 196.776,137.553 196.934 M293.815 198.210 C 294.169 198.845,294.668 200.212,294.923 201.247 L 295.388 203.129 296.448 203.129 L 297.508 203.129 297.549 204.979 C 297.571 205.996,297.486 206.828,297.360 206.828 C 296.683 206.828,296.602 208.724,297.201 210.526 C 298.834 215.441,298.543 220.447,296.568 221.406 C 294.732 222.298,293.657 220.602,293.203 216.098 C 292.950 213.596,292.048 210.835,291.239 210.093 C 289.445 208.448,287.340 204.431,287.340 202.654 C 287.340 201.205,289.902 197.899,291.465 197.331 C 292.939 196.796,293.052 196.838,293.815 198.210 M70.456 206.713 C 70.168 207.110,69.655 207.565,69.318 207.724 C 68.981 207.884,68.400 208.676,68.026 209.484 C 67.653 210.292,66.926 211.401,66.411 211.949 C 65.292 213.140,64.246 215.737,64.471 216.766 C 65.160 219.909,65.852 220.437,67.386 218.994 C 67.955 218.459,69.082 217.609,69.889 217.105 C 71.889 215.858,72.349 214.709,72.353 210.953 C 72.357 206.963,71.565 205.192,70.456 206.713 M321.291 210.740 C 320.313 216.670,321.393 220.418,324.515 221.930 C 325.218 222.270,325.930 222.852,326.100 223.223 C 326.269 223.594,326.565 223.898,326.758 223.898 C 327.822 223.898,327.424 221.091,326.201 219.979 C 325.627 219.456,325.113 218.557,324.771 217.476 C 324.477 216.549,323.960 215.149,323.622 214.367 C 323.284 213.585,322.771 212.144,322.483 211.166 C 321.854 209.036,321.588 208.940,321.291 210.740 M146.942 218.116 C 145.828 218.273,143.052 219.549,142.626 220.099 C 142.263 220.569,142.787 222.454,143.884 224.623 C 144.197 225.241,144.750 226.674,145.112 227.807 C 145.894 230.249,146.085 230.045,146.924 225.873 C 147.437 223.320,147.839 222.477,149.088 221.337 C 149.669 220.807,149.894 220.299,149.970 219.346 L 150.071 218.065 148.933 218.031 C 148.307 218.011,147.411 218.050,146.942 218.116 M330.902 231.551 C 330.640 232.575,330.625 233.116,330.847 233.531 C 331.015 233.845,331.152 234.366,331.152 234.690 C 331.152 235.837,331.722 235.257,331.763 234.068 C 331.876 230.765,331.434 229.475,330.902 231.551 M209.269 239.512 L 209.952 240.049 209.314 240.220 C 208.345 240.479,203.893 240.423,203.455 240.145 C 202.825 239.746,203.539 239.493,205.936 239.263 C 207.130 239.149,208.216 239.037,208.348 239.016 C 208.480 238.994,208.894 239.217,209.269 239.512 M247.795 255.781 C 246.309 255.890,242.724 256.000,239.829 256.025 C 236.935 256.049,230.917 256.169,226.458 256.290 C 221.999 256.411,215.661 256.402,212.376 256.270 C 209.090 256.138,188.542 256.032,166.714 256.035 C 144.886 256.038,122.994 256.038,118.065 256.034 C 98.916 256.020,91.565 256.767,104.140 257.449 C 111.186 257.831,120.740 257.835,127.362 257.458 C 132.135 257.186,153.847 257.510,156.757 257.896 C 157.838 258.039,166.489 258.583,171.223 258.806 C 173.217 258.899,175.212 258.786,177.407 258.454 C 180.151 258.039,181.181 258.011,184.136 258.269 C 188.562 258.656,206.955 258.492,210.384 258.035 C 213.887 257.569,220.715 257.539,225.196 257.970 C 234.860 258.899,264.049 258.381,268.164 257.206 L 268.990 256.971 268.279 256.691 C 266.542 256.008,252.925 255.403,247.795 255.781 M361.763 260.238 C 361.648 260.353,357.434 260.531,352.398 260.634 C 345.608 260.772,342.919 260.926,341.987 261.231 L 340.732 261.642 343.694 262.238 C 345.324 262.567,347.041 262.912,347.511 263.005 C 347.980 263.098,351.309 263.301,354.908 263.456 C 358.506 263.611,362.795 263.839,364.438 263.963 C 369.975 264.379,372.872 262.097,368.779 260.543 C 367.391 260.016,362.210 259.791,361.763 260.238 " stroke="none" fill="#13265b" fill-rule="evenodd"></path><path id="path1" d="M0.000 142.248 L 0.000 284.495 200.000 284.495 L 400.000 284.495 400.000 142.248 L 400.000 0.000 200.000 0.000 L 0.000 0.000 0.000 142.248 M199.470 32.453 C 202.153 33.889,202.737 36.442,200.887 38.652 C 200.279 39.378,199.575 40.467,199.322 41.073 L 198.862 42.174 197.368 40.904 C 196.547 40.205,195.361 39.311,194.733 38.916 C 192.719 37.653,192.394 35.577,194.029 34.424 C 194.363 34.189,195.044 33.658,195.545 33.243 C 196.758 32.238,198.436 31.900,199.470 32.453 M199.227 43.626 C 199.667 46.340,201.614 48.625,203.956 49.175 C 207.050 49.903,207.874 50.137,208.422 50.444 C 211.783 52.327,212.974 52.809,218.065 54.352 C 219.161 54.684,220.920 55.333,221.976 55.795 C 223.978 56.670,229.204 58.181,231.818 58.640 C 234.392 59.091,237.456 60.529,237.844 61.467 C 238.223 62.380,238.373 67.193,238.058 68.279 C 237.867 68.937,237.999 69.063,239.832 69.971 C 243.868 71.970,244.291 72.802,244.109 78.378 C 244.073 79.474,244.247 81.507,244.497 82.896 C 244.746 84.286,244.951 86.014,244.952 86.737 C 244.954 87.460,245.217 89.075,245.538 90.327 C 246.919 95.718,246.847 96.867,244.993 99.078 C 244.632 99.508,244.511 99.523,244.122 99.182 C 243.873 98.965,243.388 98.701,243.043 98.596 C 242.278 98.363,240.956 96.001,239.940 93.049 C 238.905 90.040,238.885 90.007,236.792 87.662 C 236.139 86.929,235.343 85.668,235.024 84.858 L 234.443 83.385 235.018 82.086 C 236.724 78.229,235.295 76.968,228.710 76.519 C 220.576 75.965,217.020 75.387,213.869 74.110 C 212.413 73.519,213.993 70.767,216.572 69.401 C 217.159 69.091,217.639 68.653,217.639 68.429 C 217.639 67.683,218.304 66.548,218.661 66.685 C 218.855 66.759,219.376 66.711,219.819 66.578 C 220.467 66.384,220.261 66.331,218.777 66.310 C 216.727 66.281,215.685 65.861,214.668 64.652 C 214.294 64.208,213.286 63.489,212.428 63.055 C 211.570 62.621,210.359 61.830,209.738 61.299 C 207.745 59.593,204.466 59.311,203.513 60.765 C 203.074 61.436,203.081 61.506,203.644 62.030 C 204.192 62.541,204.831 64.191,204.835 65.105 C 204.836 65.316,205.108 66.383,205.441 67.477 C 207.050 72.776,205.636 76.099,199.995 80.269 C 197.635 82.014,194.600 81.244,193.608 78.648 C 193.363 78.005,192.940 77.233,192.669 76.933 C 192.398 76.633,191.676 75.652,191.065 74.755 C 189.194 72.007,190.291 72.239,178.556 72.111 C 166.256 71.976,161.489 71.319,159.033 69.419 L 158.321 68.870 159.336 68.027 C 160.366 67.173,161.523 64.850,162.167 62.344 C 162.756 60.052,164.046 59.070,168.563 57.473 C 170.754 56.699,172.787 55.921,173.082 55.745 C 173.377 55.568,175.524 54.732,177.853 53.887 C 180.182 53.041,182.985 51.906,184.081 51.364 C 185.177 50.823,187.511 49.985,189.268 49.503 C 193.558 48.325,195.298 47.488,195.906 46.311 C 196.172 45.797,196.810 44.955,197.326 44.439 C 197.842 43.923,198.343 43.249,198.441 42.941 C 198.687 42.166,199.040 42.474,199.227 43.626 M191.259 58.630 C 190.218 58.960,189.303 59.452,189.040 59.823 C 185.740 64.477,185.581 65.566,187.958 67.237 L 189.133 68.062 190.280 67.418 C 190.911 67.063,192.107 65.946,192.940 64.936 C 193.772 63.925,194.981 62.732,195.626 62.285 C 196.272 61.838,196.864 61.179,196.941 60.821 C 197.019 60.463,197.174 59.952,197.287 59.684 C 197.889 58.255,194.381 57.641,191.259 58.630 M221.550 66.194 C 220.618 66.350,220.610 66.385,221.326 67.210 C 221.632 67.563,222.048 68.071,222.250 68.338 C 222.686 68.916,229.646 69.443,229.968 68.923 C 230.163 68.606,227.310 67.710,226.107 67.710 C 225.644 67.710,225.172 67.441,224.845 66.992 C 224.299 66.244,223.057 65.943,221.550 66.194 M168.463 81.499 C 169.198 84.172,168.304 87.855,166.664 88.905 C 165.216 89.833,164.078 92.297,164.312 93.998 C 164.871 98.063,166.912 101.985,168.638 102.309 C 169.148 102.404,169.628 102.585,169.706 102.710 C 169.783 102.835,170.197 102.824,170.627 102.686 C 171.057 102.547,171.753 102.366,172.175 102.283 C 174.473 101.827,175.932 98.474,176.389 92.603 C 176.839 86.811,177.099 85.513,178.297 83.104 L 179.374 80.939 180.765 80.939 C 182.573 80.939,183.036 82.075,182.588 85.412 C 182.435 86.551,182.226 88.720,182.123 90.233 L 181.935 92.984 180.625 94.365 C 177.920 97.217,176.535 106.508,177.811 113.238 C 178.273 115.672,177.937 118.473,177.162 118.649 C 177.127 118.657,175.753 118.767,174.109 118.894 C 171.644 119.085,170.822 119.274,169.415 119.978 C 164.548 122.413,162.061 122.331,158.921 119.632 C 158.196 119.009,157.326 118.937,157.326 119.499 C 157.326 120.259,155.590 120.972,155.012 120.450 C 152.427 118.110,153.243 110.263,156.289 108.176 C 158.274 106.816,160.337 101.212,160.583 96.510 C 160.756 93.190,161.548 90.705,163.037 88.813 C 163.478 88.252,163.585 87.656,163.585 85.738 C 163.585 80.983,167.408 77.661,168.463 81.499 M217.328 82.897 C 218.491 83.318,219.134 84.996,218.920 87.055 C 217.668 99.091,218.050 100.729,222.405 101.999 C 225.403 102.873,225.874 104.547,224.585 109.757 C 224.187 111.368,223.703 114.384,223.510 116.461 C 223.151 120.315,222.758 121.419,221.348 122.537 C 220.069 123.551,219.460 121.702,219.204 116.022 C 219.013 111.803,218.483 107.855,217.801 105.582 C 217.584 104.859,217.189 103.527,216.924 102.623 C 216.659 101.718,216.279 100.815,216.080 100.616 C 215.710 100.246,215.604 99.653,215.109 95.164 C 213.826 83.557,214.153 81.750,217.328 82.897 M111.043 92.196 C 112.208 92.520,114.695 94.809,115.963 96.725 C 116.931 98.188,116.558 99.664,114.669 101.849 C 112.380 104.496,112.268 104.857,112.465 108.962 C 112.619 112.182,112.390 115.534,111.935 116.719 C 111.829 116.995,112.149 117.590,112.781 118.289 C 113.792 119.408,113.943 119.914,113.623 121.108 C 113.214 122.631,109.991 121.856,109.245 120.055 C 108.751 118.861,107.401 117.885,105.685 117.479 C 104.905 117.295,104.059 117.041,103.805 116.913 C 103.550 116.786,102.846 116.602,102.240 116.504 C 101.634 116.406,100.847 116.266,100.491 116.193 C 100.041 116.100,99.782 116.223,99.638 116.595 C 99.353 117.332,97.901 118.937,96.829 119.701 C 96.339 120.050,95.851 120.682,95.745 121.105 C 95.639 121.529,95.176 122.303,94.717 122.825 C 92.072 125.838,94.789 129.489,100.112 130.074 C 104.262 130.530,105.358 131.034,105.645 132.619 C 106.261 136.032,102.196 138.126,98.567 136.264 C 96.574 135.242,94.140 135.467,88.809 137.163 C 87.691 137.519,85.980 137.262,85.277 136.632 C 84.129 135.601,85.389 131.836,87.209 130.861 C 87.989 130.444,89.888 128.274,90.746 126.820 C 91.121 126.184,91.388 125.059,91.512 123.592 C 91.711 121.246,92.562 119.772,93.719 119.772 C 93.966 119.772,94.168 119.668,94.168 119.541 C 94.168 119.413,94.611 119.097,95.153 118.839 C 95.862 118.501,96.204 118.107,96.372 117.435 C 96.549 116.727,96.899 116.352,97.815 115.885 C 99.018 115.273,100.181 113.898,100.577 112.618 C 100.851 111.736,102.107 109.218,102.543 108.677 C 102.732 108.442,103.305 107.226,103.815 105.974 C 104.326 104.723,105.166 103.250,105.682 102.703 C 107.617 100.648,108.070 99.570,108.382 96.273 C 108.646 93.493,109.147 91.889,109.751 91.893 C 109.864 91.894,110.446 92.031,111.043 92.196 M202.276 97.214 C 206.455 97.735,206.544 97.781,207.117 99.714 C 207.303 100.341,207.556 100.982,207.679 101.138 C 207.951 101.484,208.303 103.126,209.420 109.246 C 212.831 127.948,212.374 129.051,201.422 128.529 C 195.404 128.242,189.873 128.690,188.115 129.606 C 187.114 130.129,186.647 130.119,186.031 129.561 C 185.755 129.312,185.116 128.896,184.610 128.637 C 182.676 127.646,182.307 125.546,182.933 119.109 C 183.205 116.306,184.113 111.878,184.634 110.811 C 184.787 110.498,185.284 109.218,185.740 107.966 C 187.790 102.327,189.576 98.565,191.075 96.728 C 191.487 96.223,195.826 96.412,202.276 97.214 M286.984 99.825 C 288.294 101.022,288.259 100.873,288.195 104.922 C 288.056 113.716,291.157 118.268,297.752 118.951 C 301.832 119.373,304.421 120.725,304.844 122.654 C 304.942 123.100,305.141 123.537,305.285 123.627 C 305.646 123.850,305.616 126.707,305.244 127.524 C 304.721 128.672,299.354 127.647,296.728 125.897 C 293.869 123.992,290.704 123.248,288.700 124.009 C 287.061 124.633,285.622 123.355,284.407 120.199 C 282.415 115.022,282.198 113.570,282.797 109.425 C 283.036 107.776,283.006 107.331,282.607 106.580 C 282.347 106.091,281.872 105.185,281.551 104.568 C 279.566 100.753,283.880 96.987,286.984 99.825 M146.184 111.162 C 145.865 112.431,145.557 112.686,145.265 111.926 C 144.998 111.229,145.060 109.912,145.429 108.447 L 145.766 107.112 146.128 108.530 C 146.399 109.592,146.413 110.252,146.184 111.162 M252.883 111.391 C 253.417 113.486,253.759 114.413,254.713 116.358 C 254.909 116.757,255.457 117.187,255.961 117.337 C 256.967 117.635,257.456 118.521,258.152 121.299 C 258.381 122.217,258.807 123.242,259.098 123.575 C 259.390 123.909,259.796 124.520,260.002 124.933 C 260.207 125.346,260.682 125.848,261.055 126.048 C 262.260 126.693,261.936 127.454,260.455 127.454 C 259.224 127.454,258.037 126.766,258.037 126.053 C 258.037 125.909,257.621 125.653,257.112 125.485 C 255.817 125.057,254.076 122.635,253.443 120.382 C 252.855 118.289,252.511 117.782,251.672 117.777 C 249.688 117.764,249.021 116.612,249.323 113.719 C 249.587 111.193,250.072 109.865,251.022 109.065 C 252.047 108.203,252.079 108.243,252.883 111.391 M242.431 115.505 C 242.278 116.053,242.068 117.205,241.964 118.065 C 241.039 125.738,235.003 125.908,234.994 118.263 C 234.990 114.602,236.056 113.161,239.208 112.565 C 241.327 112.165,242.041 111.667,242.133 110.526 C 242.159 110.213,242.299 110.982,242.445 112.233 C 242.614 113.688,242.609 114.869,242.431 115.505 M125.207 114.438 C 126.006 115.188,126.885 116.492,126.885 116.928 C 126.885 117.203,126.294 117.877,123.448 120.842 C 122.270 122.070,122.497 122.469,124.766 123.170 C 128.748 124.400,131.990 123.627,135.024 120.724 C 135.980 119.809,137.313 118.677,137.987 118.208 C 138.726 117.692,139.559 116.731,140.089 115.781 C 140.989 114.169,141.010 114.159,142.695 114.513 C 143.227 114.625,143.266 114.771,143.093 115.996 C 142.581 119.621,141.700 120.902,136.510 125.570 C 133.872 127.942,134.055 127.881,129.587 127.875 C 124.742 127.868,123.184 127.501,122.128 126.117 C 121.251 124.967,119.120 123.511,116.856 122.515 C 114.694 121.564,114.490 120.062,116.287 118.330 C 116.874 117.765,117.585 116.961,117.867 116.543 C 119.505 114.121,123.615 112.942,125.207 114.438 M248.624 118.328 C 249.386 118.811,249.041 121.425,248.020 122.907 L 247.121 124.210 246.178 123.166 C 244.005 120.761,246.056 116.703,248.624 118.328 M277.026 121.302 C 279.243 122.723,280.028 123.834,279.794 125.222 C 279.603 126.354,278.601 127.738,277.972 127.738 C 277.843 127.738,276.810 128.570,275.676 129.587 L 273.613 131.437 270.692 131.437 C 267.522 131.437,267.425 131.387,267.425 129.738 C 267.425 129.043,267.561 128.914,268.472 128.743 C 271.139 128.243,271.999 125.785,270.529 122.864 C 269.377 120.576,274.115 119.436,277.026 121.302 M177.762 128.438 C 178.435 129.088,178.462 130.950,177.813 131.999 C 177.296 132.837,170.860 132.832,168.307 131.992 C 167.854 131.843,167.176 131.721,166.800 131.721 C 166.425 131.721,165.813 131.392,165.439 130.989 C 164.171 129.620,162.840 129.161,160.144 129.161 L 157.676 129.161 156.648 130.299 C 155.763 131.279,155.456 131.437,154.437 131.437 C 153.310 131.437,153.277 131.413,153.725 130.916 C 153.984 130.630,154.196 130.054,154.196 129.636 C 154.196 129.114,154.352 128.866,154.694 128.845 C 154.968 128.827,157.368 128.795,160.028 128.773 C 163.714 128.743,165.034 128.635,165.576 128.316 C 167.295 127.306,176.686 127.400,177.762 128.438 M247.526 129.064 C 247.958 130.374,247.946 132.819,247.501 134.169 L 247.160 135.202 245.130 135.009 C 244.014 134.903,242.653 134.702,242.105 134.563 C 241.558 134.423,240.085 134.105,238.834 133.855 C 237.582 133.605,235.080 133.053,233.273 132.629 C 229.714 131.792,228.021 131.839,222.547 132.930 C 219.387 133.559,218.221 132.502,219.517 130.184 L 220.248 128.876 221.818 128.876 C 223.078 128.876,223.556 129.017,224.234 129.587 C 224.699 129.979,225.357 130.305,225.698 130.313 C 226.038 130.321,227.212 130.427,228.307 130.549 C 231.109 130.860,234.805 130.290,235.751 129.402 C 236.408 128.784,236.720 128.730,239.923 128.682 C 241.828 128.654,243.962 128.508,244.666 128.358 C 246.950 127.871,247.148 127.920,247.526 129.064 M147.228 133.444 C 148.037 133.696,148.078 133.782,147.982 134.993 C 147.793 137.366,145.703 137.922,140.102 137.089 C 137.724 136.735,137.378 136.420,138.013 135.187 C 138.703 133.850,139.418 133.460,141.963 133.031 C 142.946 132.866,146.192 133.120,147.228 133.444 M194.168 133.733 C 196.774 133.889,199.972 133.884,202.383 133.720 C 206.823 133.417,207.139 133.484,209.623 135.269 C 210.998 136.256,211.095 136.406,211.095 137.529 C 211.095 140.663,207.102 140.903,200.000 138.194 C 198.618 137.667,197.725 137.588,192.353 137.519 C 185.256 137.428,184.709 137.248,185.258 135.184 C 185.773 133.250,185.867 133.235,194.168 133.733 M254.971 139.391 C 256.561 139.647,256.792 139.620,257.332 139.112 C 258.414 138.096,261.451 139.641,261.451 141.206 C 261.451 141.669,259.337 141.992,258.097 141.719 C 257.360 141.556,255.637 141.341,254.267 141.241 L 251.778 141.058 251.778 139.811 C 251.778 138.596,251.797 138.570,252.493 138.835 C 252.886 138.985,254.001 139.235,254.971 139.391 M307.468 140.224 C 308.917 141.469,307.594 141.963,302.816 141.963 C 300.766 141.963,299.015 142.100,298.591 142.293 C 297.740 142.681,295.887 142.193,295.161 141.392 C 294.153 140.277,297.371 138.500,299.094 139.220 C 300.155 139.663,303.306 139.445,304.360 138.856 C 304.850 138.581,306.298 139.219,307.468 140.224 M119.367 141.529 C 122.720 142.027,124.697 142.051,128.225 141.635 C 131.387 141.263,131.924 141.377,132.919 142.636 L 133.690 143.611 133.134 144.760 C 132.360 146.363,132.587 146.315,125.923 146.254 C 117.371 146.176,114.409 146.609,110.613 148.490 L 109.562 149.011 109.386 148.213 C 108.139 142.533,111.405 140.346,119.367 141.529 M283.577 143.256 C 284.850 143.413,285.142 143.564,285.498 144.253 C 286.811 146.791,283.456 148.521,279.734 147.225 C 277.708 146.519,271.551 146.618,267.810 147.417 C 266.728 147.648,266.245 147.645,265.961 147.407 C 265.749 147.229,265.272 146.852,264.901 146.569 C 264.253 146.075,264.244 146.019,264.673 145.189 C 265.544 143.504,265.934 143.410,273.175 143.135 C 279.734 142.886,280.659 142.897,283.577 143.256 M86.183 148.717 C 87.119 152.635,86.479 155.690,84.405 157.198 L 83.211 158.066 82.147 157.039 C 78.784 153.795,78.690 148.419,81.942 145.263 C 82.564 144.659,83.073 144.025,83.073 143.853 C 83.073 143.079,85.888 147.482,86.183 148.717 M177.980 145.879 C 178.480 146.213,179.836 148.506,179.534 148.506 C 179.383 148.506,178.873 149.067,178.402 149.753 C 177.394 151.217,176.012 151.595,173.656 151.051 C 172.889 150.874,171.689 150.665,170.988 150.587 C 170.287 150.509,169.391 150.279,168.996 150.076 C 168.161 149.646,163.203 148.884,159.317 148.587 L 156.615 148.381 160.455 148.040 C 162.568 147.853,166.196 147.689,168.519 147.676 C 172.291 147.655,172.830 147.591,173.557 147.073 C 175.067 145.998,177.268 145.404,177.980 145.879 M151.532 146.361 C 151.858 146.589,152.836 147.145,153.706 147.596 L 155.288 148.417 153.818 148.865 C 150.198 149.968,149.524 149.645,150.200 147.132 C 150.553 145.823,150.669 145.756,151.532 146.361 M247.105 150.001 C 247.495 150.413,247.499 153.314,247.111 153.702 C 246.429 154.384,244.031 154.542,240.541 154.135 C 235.790 153.580,231.370 154.018,225.605 155.614 C 220.906 156.915,219.621 156.723,217.053 154.341 C 215.623 153.014,215.578 151.610,216.934 150.671 C 217.541 150.250,227.797 150.680,234.139 151.392 C 240.121 152.064,242.448 151.725,244.239 149.921 C 244.471 149.687,246.871 149.754,247.105 150.001 M107.860 151.539 C 109.251 153.221,107.694 157.736,105.290 158.988 C 104.415 159.444,103.103 160.156,102.376 160.571 C 101.649 160.986,100.048 161.517,98.820 161.751 C 95.798 162.327,94.662 163.401,93.887 166.416 C 93.157 169.255,92.878 169.416,92.495 167.219 C 92.131 165.129,92.503 161.180,93.188 159.856 C 93.416 159.415,93.792 158.154,94.023 157.053 C 94.890 152.932,96.021 151.966,100.161 151.814 C 101.794 151.753,103.450 151.569,103.841 151.404 C 105.003 150.912,107.409 150.993,107.860 151.539 M143.587 151.993 C 147.960 152.098,148.503 154.130,144.763 156.399 C 142.345 157.866,142.006 158.179,141.656 159.277 C 141.279 160.458,140.825 161.082,140.825 160.419 C 140.825 159.853,139.809 158.941,138.503 158.336 C 133.796 156.156,133.703 151.385,138.376 151.745 C 139.645 151.843,141.990 151.955,143.587 151.993 M258.859 157.014 C 261.453 159.969,253.841 164.327,251.177 161.411 C 249.757 159.856,249.622 156.757,250.975 156.757 C 251.152 156.757,252.141 156.354,253.173 155.861 C 256.103 154.462,256.616 154.414,257.508 155.454 C 257.921 155.936,258.529 156.638,258.859 157.014 M314.847 156.117 C 315.591 160.471,314.923 164.258,313.333 164.697 C 311.321 165.253,310.751 163.951,311.198 159.814 C 311.703 155.141,311.864 154.765,313.367 154.765 L 314.617 154.765 314.847 156.117 M288.305 157.776 C 288.559 158.437,288.508 160.253,288.222 160.703 C 288.043 160.986,287.877 160.794,287.615 159.999 C 287.416 159.398,287.069 158.722,286.844 158.496 C 286.486 158.138,286.519 158.038,287.100 157.716 C 287.971 157.233,288.099 157.239,288.305 157.776 M157.525 158.227 C 158.421 158.968,158.515 160.340,157.791 162.121 C 157.407 163.067,157.002 164.263,156.892 164.779 C 156.781 165.296,156.593 165.846,156.473 166.003 C 156.352 166.159,156.093 167.204,155.895 168.325 L 155.537 170.362 154.319 170.459 L 153.102 170.555 152.910 168.644 C 152.143 161.012,154.488 155.719,157.525 158.227 M177.643 160.850 C 177.823 162.172,177.777 164.376,177.495 167.942 L 177.087 173.115 176.556 170.270 C 176.264 168.706,175.851 166.929,175.637 166.323 C 174.944 164.353,175.292 160.859,176.323 159.441 C 177.062 158.426,177.356 158.740,177.643 160.850 M199.429 163.320 C 201.073 164.113,202.758 164.945,203.173 165.169 C 203.589 165.393,204.124 165.576,204.362 165.576 C 205.004 165.576,205.690 166.378,205.690 167.129 C 205.690 167.670,206.023 167.929,207.552 168.579 C 211.377 170.205,212.544 173.864,210.085 176.518 C 208.994 177.695,209.111 179.389,210.376 180.729 C 213.548 184.092,214.055 189.095,211.624 193.036 C 209.772 196.038,209.808 198.356,211.778 202.987 C 212.178 203.926,212.507 204.927,212.511 205.211 C 212.515 205.495,212.646 205.967,212.803 206.260 C 213.102 206.818,213.471 209.776,213.957 215.505 C 214.558 222.598,216.003 224.610,219.160 222.748 C 220.314 222.067,222.784 221.346,223.979 221.341 C 224.415 221.339,225.082 221.134,225.461 220.885 C 227.163 219.770,229.937 219.108,231.251 219.504 C 231.931 219.708,234.684 219.964,237.368 220.072 L 242.248 220.268 243.030 219.383 C 243.460 218.896,243.812 218.368,243.812 218.210 C 243.812 218.052,243.930 217.923,244.074 217.923 C 245.831 217.923,245.752 213.798,243.962 212.091 C 243.306 211.465,242.638 210.713,242.477 210.419 C 242.205 209.922,242.173 209.933,242.012 210.576 C 241.439 212.858,237.048 212.938,233.339 210.733 C 232.270 210.098,230.605 210.201,230.055 210.935 C 229.681 211.435,226.451 212.802,225.643 212.802 C 223.323 212.802,222.943 204.981,224.631 191.958 C 224.869 190.117,225.075 186.495,225.088 183.910 C 225.104 180.581,225.204 179.241,225.429 179.316 C 225.630 179.384,225.757 180.404,225.774 182.101 C 225.834 187.959,227.127 196.881,228.266 199.289 C 229.758 202.447,229.969 202.845,230.144 202.845 C 231.447 202.845,231.858 189.055,230.618 186.961 C 230.413 186.615,231.266 181.646,231.715 180.572 C 232.321 179.120,234.608 179.013,236.511 180.347 C 237.258 180.870,238.233 181.246,239.149 181.364 C 242.245 181.761,242.916 182.901,242.605 187.237 C 242.458 189.302,242.137 189.817,240.782 190.166 C 239.087 190.603,237.802 191.817,238.373 192.441 C 239.552 193.730,240.158 195.482,240.435 198.399 C 240.585 199.984,240.819 201.600,240.955 201.991 C 241.091 202.383,241.424 203.813,241.694 205.171 L 242.185 207.639 243.062 207.020 C 244.445 206.044,244.655 205.790,245.271 204.346 C 245.589 203.599,246.029 202.589,246.248 202.103 C 246.467 201.616,246.756 200.920,246.891 200.555 C 247.079 200.047,247.254 200.683,247.643 203.289 C 247.921 205.157,248.340 207.257,248.573 207.956 C 248.867 208.836,248.986 210.300,248.962 212.726 C 248.933 215.625,249.018 216.408,249.458 217.288 C 249.751 217.872,250.069 218.670,250.166 219.061 C 250.263 219.452,250.713 220.203,251.166 220.728 L 251.991 221.685 253.149 220.639 C 254.936 219.024,255.049 218.076,254.692 207.681 C 254.100 190.451,254.281 187.386,255.970 186.058 L 256.751 185.444 257.089 187.968 C 257.275 189.356,257.566 192.471,257.736 194.890 C 258.291 202.776,260.398 216.711,261.229 217.988 C 261.460 218.344,261.741 219.147,261.853 219.772 C 262.048 220.863,262.807 222.806,263.529 224.065 C 264.503 225.764,265.242 226.743,265.551 226.743 C 266.375 226.743,267.141 227.897,267.141 229.141 C 267.141 230.956,266.255 231.182,265.058 229.672 C 264.772 229.313,264.383 229.018,264.192 229.018 C 264.001 229.018,263.698 228.468,263.518 227.795 C 263.134 226.361,262.851 226.192,259.377 225.320 C 254.209 224.022,252.121 225.887,252.016 231.896 L 251.969 234.566 251.795 231.294 C 251.614 227.865,251.512 227.595,249.438 225.011 C 248.626 224.000,244.632 223.066,241.045 223.050 C 240.353 223.046,239.448 222.803,238.912 222.476 C 237.737 221.760,237.528 221.765,236.709 222.527 C 236.142 223.056,235.550 223.183,232.744 223.382 C 226.042 223.856,224.973 224.011,224.638 224.558 C 224.466 224.841,223.961 225.480,223.517 225.978 C 222.452 227.175,222.055 227.988,221.619 229.872 C 221.420 230.733,221.146 231.901,221.011 232.469 C 220.845 233.166,220.326 233.888,219.415 234.691 C 217.514 236.368,217.480 236.392,216.031 237.033 C 214.744 237.602,214.728 237.625,214.878 238.743 C 215.074 240.204,214.709 240.055,218.935 240.385 C 220.960 240.543,223.770 240.860,225.178 241.088 C 227.452 241.457,237.141 241.842,244.592 241.859 C 247.512 241.866,249.778 240.879,251.296 238.939 L 251.969 238.079 252.466 238.838 C 254.045 241.247,257.403 241.730,267.724 241.031 C 275.004 240.538,275.223 240.268,274.000 233.286 C 273.849 232.425,273.716 230.481,273.705 228.965 C 273.694 227.449,273.503 225.401,273.281 224.413 C 273.059 223.425,272.795 221.657,272.694 220.484 C 272.388 216.919,271.960 213.672,271.363 210.384 C 270.780 207.174,270.305 203.767,270.283 202.632 C 270.276 202.281,269.818 201.513,269.266 200.928 C 268.713 200.342,267.913 199.349,267.487 198.722 C 267.062 198.095,266.510 197.355,266.260 197.077 C 265.608 196.353,265.045 193.724,265.216 192.204 C 265.877 186.343,272.202 182.441,279.931 183.127 L 283.104 183.409 285.140 185.374 C 288.798 188.904,290.185 190.373,290.185 190.716 C 290.185 191.157,292.698 193.519,292.982 193.344 C 293.102 193.270,293.642 192.561,294.182 191.769 C 294.722 190.976,295.240 190.328,295.334 190.328 C 296.008 190.326,297.263 196.769,297.688 202.418 L 298.009 206.686 299.200 207.239 C 300.511 207.849,300.869 208.459,301.878 211.807 C 302.208 212.902,302.586 213.932,302.719 214.095 C 302.851 214.259,303.228 215.603,303.556 217.082 C 304.452 221.127,304.718 221.856,305.478 222.354 L 306.174 222.811 305.464 223.567 C 304.811 224.264,304.317 225.210,302.983 228.318 C 301.643 231.440,301.682 236.121,303.066 238.299 C 304.433 240.451,304.713 240.548,310.811 240.968 C 312.845 241.108,316.110 241.372,318.065 241.554 C 324.654 242.167,328.606 241.569,330.614 239.654 L 331.356 238.947 332.321 239.499 C 333.899 240.401,335.806 240.651,342.178 240.790 C 349.680 240.955,350.914 241.318,351.234 243.454 C 351.444 244.853,351.112 245.732,350.125 246.386 C 349.267 246.955,338.354 247.120,334.566 246.620 C 330.772 246.120,326.639 246.200,323.613 246.833 C 320.504 247.483,310.675 247.581,305.690 247.011 C 302.071 246.597,296.552 246.540,278.378 246.728 C 264.639 246.871,262.631 247.052,256.472 248.710 C 254.923 249.128,243.313 249.405,237.553 249.162 C 234.972 249.053,229.083 248.825,224.467 248.656 C 219.851 248.486,214.666 248.279,212.945 248.195 C 205.446 247.831,173.968 247.861,170.413 248.236 C 168.457 248.442,164.680 248.744,162.020 248.906 C 159.360 249.068,155.007 249.338,152.347 249.505 C 138.010 250.406,122.626 250.421,117.070 249.540 C 114.879 249.193,111.743 248.793,110.100 248.651 C 105.714 248.273,99.858 247.442,99.858 247.199 C 99.858 246.961,100.332 246.850,103.983 246.229 C 105.391 245.990,107.067 245.595,107.707 245.351 L 108.870 244.908 108.457 243.656 C 107.950 242.114,107.401 241.964,103.019 242.171 C 100.718 242.281,99.737 242.454,98.911 242.896 C 97.822 243.480,96.634 243.412,95.776 242.717 C 94.238 241.472,86.070 240.962,74.626 241.397 C 70.497 241.553,68.937 241.517,68.225 241.245 C 66.592 240.623,58.030 240.537,54.626 241.109 C 49.773 241.924,46.942 241.034,46.942 238.694 C 46.942 236.713,47.850 236.346,53.246 236.144 C 59.295 235.918,59.977 235.309,60.746 229.442 C 61.446 224.100,62.146 224.322,62.474 229.990 C 62.717 234.195,63.413 235.797,65.454 236.852 C 66.520 237.404,94.090 237.474,96.441 236.931 C 98.109 236.546,98.919 235.488,99.559 232.859 C 99.749 232.077,100.654 229.132,101.569 226.316 C 102.484 223.499,103.364 220.363,103.526 219.346 C 104.521 213.062,105.822 209.361,107.746 207.336 C 108.818 206.208,109.017 204.386,108.341 201.877 C 108.043 200.766,107.610 199.154,107.380 198.293 C 105.076 189.670,115.465 184.087,125.178 188.728 C 128.500 190.315,129.307 191.213,129.710 193.767 C 129.893 194.926,130.306 196.860,130.629 198.065 C 131.249 200.383,131.227 201.247,130.471 204.125 C 130.225 205.064,130.021 206.828,130.019 208.046 C 130.013 210.828,129.677 211.599,127.384 214.083 C 125.112 216.544,124.534 217.671,123.911 220.852 C 123.393 223.496,123.392 223.477,124.328 230.069 C 125.199 236.202,126.965 238.185,130.392 236.876 C 132.638 236.018,135.219 236.524,137.553 238.281 C 139.221 239.536,144.061 239.779,145.519 238.680 C 146.125 238.224,157.771 239.018,160.740 239.718 C 161.131 239.811,163.371 239.998,165.718 240.134 C 168.065 240.271,170.563 240.464,171.269 240.562 L 172.553 240.742 174.399 238.850 C 176.926 236.260,178.558 236.051,180.616 238.054 C 181.692 239.101,184.324 240.107,185.547 239.939 L 186.771 239.771 186.771 229.630 C 186.771 219.613,186.763 219.470,186.109 218.065 C 185.224 216.161,184.875 213.918,185.209 212.273 C 185.357 211.547,185.606 205.804,185.763 199.511 C 186.045 188.211,186.329 185.170,187.268 183.379 C 187.685 182.583,187.562 180.211,187.052 179.225 C 185.129 175.507,185.082 172.114,186.900 168.318 C 187.210 167.671,187.596 166.613,187.758 165.969 C 188.794 161.850,193.955 160.679,199.429 163.320 M213.598 162.551 C 216.104 165.058,213.367 166.973,208.759 165.937 C 206.409 165.409,206.372 165.368,206.709 163.681 C 207.010 162.176,212.347 161.301,213.598 162.551 M223.354 162.929 C 224.300 163.886,224.225 167.841,223.253 168.214 C 219.948 169.482,217.606 165.158,220.102 162.397 C 220.538 161.915,222.701 162.270,223.354 162.929 M242.946 166.856 C 242.954 167.639,242.801 169.367,242.608 170.697 L 242.256 173.115 242.067 171.550 C 241.808 169.412,241.777 164.884,242.017 164.258 C 242.327 163.450,242.930 165.138,242.946 166.856 M141.354 168.279 C 141.354 170.767,140.953 171.542,140.769 169.409 C 140.583 167.250,140.804 165.172,141.130 166.003 C 141.253 166.316,141.354 167.340,141.354 168.279 M115.205 167.254 C 115.456 167.724,115.318 167.877,114.148 168.421 C 113.408 168.766,112.580 169.246,112.307 169.487 C 111.851 169.893,111.777 169.843,111.363 168.852 C 110.831 167.577,110.991 167.355,112.680 167.024 C 114.609 166.645,114.893 166.671,115.205 167.254 M284.029 171.565 C 284.572 171.886,285.215 172.450,285.456 172.818 C 285.734 173.241,286.570 173.713,287.727 174.098 C 292.628 175.729,291.486 180.439,286.344 179.796 C 284.048 179.510,283.192 179.062,282.615 177.847 C 282.349 177.286,281.861 176.614,281.532 176.355 C 281.202 176.096,280.552 175.088,280.087 174.115 L 279.242 172.346 280.035 171.664 C 281.037 170.802,282.667 170.762,284.029 171.565 M96.995 173.396 C 97.747 173.561,97.856 173.723,98.009 174.913 C 98.103 175.645,98.231 176.489,98.293 176.787 C 98.573 178.140,97.856 183.536,97.295 184.297 C 95.577 186.623,94.965 189.712,94.717 197.297 C 94.339 208.852,93.522 219.108,92.948 219.503 C 91.517 220.488,87.867 219.368,87.728 217.903 C 87.707 217.679,87.675 217.286,87.657 217.028 C 87.631 216.655,87.177 216.520,85.420 216.364 C 83.118 216.160,82.326 215.749,81.353 214.255 C 80.887 213.540,80.900 213.422,82.055 207.539 C 82.270 206.444,82.580 204.813,82.744 203.915 C 82.939 202.844,83.336 201.913,83.897 201.212 C 85.836 198.787,86.762 195.196,86.769 190.075 C 86.771 188.097,87.207 183.934,87.655 181.608 C 87.921 180.227,87.995 180.133,88.953 179.953 C 90.095 179.739,92.090 179.999,92.334 180.395 C 92.724 181.026,93.001 180.513,93.308 178.592 C 94.005 174.235,94.955 172.013,95.773 172.831 C 95.982 173.040,96.532 173.294,96.995 173.396 M177.506 191.181 C 177.683 200.178,177.981 209.780,178.169 212.518 C 178.873 222.813,178.069 224.374,173.483 221.613 C 172.220 220.853,171.973 220.809,169.201 220.858 L 166.259 220.910 165.063 219.654 C 164.406 218.964,163.900 218.374,163.940 218.344 C 164.292 218.075,167.698 217.117,167.888 217.234 C 168.575 217.659,172.469 217.375,172.839 216.872 C 174.597 214.488,176.424 190.052,175.142 186.064 C 174.767 184.897,174.549 182.837,174.643 181.362 C 174.663 181.047,174.968 180.663,175.320 180.508 C 176.121 180.157,176.926 177.913,176.943 175.984 C 176.950 175.215,177.007 174.638,177.070 174.704 C 177.132 174.769,177.329 182.183,177.506 191.181 M168.891 178.446 C 171.261 180.722,171.179 182.528,168.562 185.633 C 165.030 189.823,164.714 191.548,166.790 195.303 C 167.545 196.670,167.891 206.602,167.285 209.521 C 166.335 214.099,162.552 212.850,160.808 207.384 C 159.899 204.534,159.883 204.112,160.472 198.836 C 160.776 196.112,161.098 191.259,161.187 188.051 C 161.450 178.635,162.379 176.707,166.430 177.166 C 167.427 177.279,167.971 177.562,168.891 178.446 M151.790 199.670 C 152.065 207.632,151.159 213.867,150.095 211.333 C 149.280 209.392,149.020 206.587,149.359 203.387 C 149.531 201.759,149.789 198.890,149.931 197.013 C 150.074 195.135,150.282 192.703,150.394 191.607 L 150.598 189.616 151.091 191.678 C 151.424 193.070,151.651 195.667,151.790 199.670 M138.835 198.649 C 138.835 199.783,139.102 202.312,139.427 204.267 C 140.014 207.800,140.025 209.038,139.518 214.474 C 139.388 215.865,139.464 216.544,139.844 217.386 C 140.948 219.834,139.947 223.743,137.567 226.274 C 135.045 228.958,133.873 226.142,135.023 220.159 C 135.371 218.349,135.437 216.932,135.298 214.225 C 134.676 202.073,134.909 198.102,136.283 197.426 C 136.749 197.197,138.291 196.663,138.620 196.616 C 138.738 196.600,138.834 197.514,138.835 198.649 M291.465 197.331 C 289.902 197.899,287.340 201.205,287.340 202.654 C 287.340 204.431,289.445 208.448,291.239 210.093 C 292.048 210.835,292.950 213.596,293.203 216.098 C 293.657 220.602,294.732 222.298,296.568 221.406 C 298.543 220.447,298.834 215.441,297.201 210.526 C 296.602 208.724,296.683 206.828,297.360 206.828 C 297.486 206.828,297.571 205.996,297.549 204.979 L 297.508 203.129 296.448 203.129 L 295.388 203.129 294.923 201.247 C 294.013 197.560,293.241 196.686,291.465 197.331 M71.849 207.041 C 73.352 210.206,72.301 215.601,69.889 217.105 C 69.082 217.609,67.955 218.459,67.386 218.994 C 65.852 220.437,65.160 219.909,64.471 216.766 C 64.246 215.737,65.292 213.140,66.411 211.949 C 66.926 211.401,67.653 210.292,68.026 209.484 C 68.400 208.676,68.981 207.884,69.318 207.724 C 69.655 207.565,70.168 207.110,70.456 206.713 C 71.149 205.762,71.254 205.787,71.849 207.041 M322.483 211.166 C 322.771 212.144,323.284 213.585,323.622 214.367 C 323.960 215.149,324.477 216.549,324.771 217.476 C 325.113 218.557,325.627 219.456,326.201 219.979 C 327.424 221.091,327.822 223.898,326.758 223.898 C 326.565 223.898,326.269 223.594,326.100 223.223 C 325.930 222.852,325.218 222.270,324.515 221.930 C 321.787 220.609,321.108 219.197,321.083 214.794 C 321.055 209.627,321.607 208.196,322.483 211.166 M149.970 219.346 C 149.894 220.299,149.669 220.807,149.088 221.337 C 147.839 222.477,147.437 223.320,146.924 225.873 C 146.085 230.045,145.894 230.249,145.112 227.807 C 144.750 226.674,144.197 225.241,143.884 224.623 C 142.787 222.454,142.263 220.569,142.626 220.099 C 143.460 219.021,146.689 217.962,148.933 218.031 L 150.071 218.065 149.970 219.346 M331.734 231.863 C 331.862 233.693,331.724 235.277,331.437 235.277 C 331.280 235.277,331.152 235.013,331.152 234.690 C 331.152 234.366,331.015 233.845,330.847 233.531 C 330.625 233.116,330.640 232.575,330.902 231.551 C 331.288 230.047,331.616 230.170,331.734 231.863 M205.936 239.263 C 203.539 239.493,202.825 239.746,203.455 240.145 C 203.893 240.423,208.345 240.479,209.314 240.220 L 209.952 240.049 209.269 239.512 C 208.894 239.217,208.480 238.994,208.348 239.016 C 208.216 239.037,207.130 239.149,205.936 239.263 M263.585 256.093 C 265.775 256.268,267.888 256.537,268.279 256.691 L 268.990 256.971 268.164 257.206 C 264.049 258.381,234.860 258.899,225.196 257.970 C 220.715 257.539,213.887 257.569,210.384 258.035 C 206.955 258.492,188.562 258.656,184.136 258.269 C 181.181 258.011,180.151 258.039,177.407 258.454 C 175.212 258.786,173.217 258.899,171.223 258.806 C 166.489 258.583,157.838 258.039,156.757 257.896 C 153.847 257.510,132.135 257.186,127.362 257.458 C 120.740 257.835,111.186 257.831,104.140 257.449 C 91.565 256.767,98.916 256.020,118.065 256.034 C 122.994 256.038,144.886 256.038,166.714 256.035 C 188.542 256.032,209.090 256.138,212.376 256.270 C 215.661 256.402,221.999 256.411,226.458 256.290 C 230.917 256.169,236.935 256.049,239.829 256.025 C 242.724 256.000,246.309 255.890,247.795 255.781 C 251.168 255.532,258.350 255.674,263.585 256.093 M368.779 260.543 C 370.644 261.251,370.837 261.494,370.324 262.485 C 369.630 263.824,368.009 264.231,364.438 263.963 C 362.795 263.839,358.506 263.611,354.908 263.456 C 351.309 263.301,347.980 263.098,347.511 263.005 C 347.041 262.912,345.324 262.567,343.694 262.238 L 340.732 261.642 341.987 261.231 C 342.919 260.926,345.608 260.772,352.398 260.634 C 357.434 260.531,361.648 260.353,361.763 260.238 C 362.210 259.791,367.391 260.016,368.779 260.543 " stroke="none" fill="#ffffff" fill-rule="evenodd"></path></g></svg>